<svg xmlns="http://www.w3.org/2000/svg" width="20" height="20" fill="none" viewBox="0 0 20 20">
  <path fill="#fff" d="M10 0a9.79 9.79 0 0 0-3.827.78A9.988 9.988 0 0 0 2.93 3.002 10.379 10.379 0 0 0 0 10.248c0 4.53 2.87 8.373 6.84 9.736.5.082.66-.236.66-.512V17.74c-2.77.615-3.36-1.373-3.36-1.373-.46-1.19-1.11-1.507-1.11-1.507-.91-.635.07-.615.07-.615 1 .072 1.53 1.056 1.53 1.056.87 1.557 2.34 1.096 2.91.85.09-.666.35-1.117.63-1.373-2.22-.256-4.55-1.138-4.55-5.042 0-1.138.38-2.05 1.03-2.777-.1-.257-.45-1.322.1-2.706 0 0 .84-.277 2.75 1.045A9.208 9.208 0 0 1 10 4.96c.85 0 1.71.113 2.5.338 1.91-1.322 2.75-1.045 2.75-1.045.55 1.384.2 2.45.1 2.706.65.727 1.03 1.64 1.03 2.777 0 3.915-2.34 4.776-4.57 5.032.36.317.69.943.69 1.896v2.808c0 .276.16.604.67.512 3.97-1.373 6.83-5.206 6.83-9.736a10.47 10.47 0 0 0-.761-3.922 10.27 10.27 0 0 0-2.168-3.324A9.987 9.987 0 0 0 13.827.78 9.79 9.79 0 0 0 10 0Z"/>
</svg>
