<svg xmlns="http://www.w3.org/2000/svg" width="489" height="410" fill="none" viewBox="0 0 489 410">
  <path fill="#fff" d="M232.535 197v-1.193l3.691-3.825c.394-.415.719-.779.975-1.092.259-.316.453-.616.581-.9.127-.284.191-.586.191-.905 0-.363-.085-.675-.255-.938a1.676 1.676 0 0 0-.698-.613 2.228 2.228 0 0 0-.996-.218c-.391 0-.732.08-1.023.24-.291.16-.515.385-.671.676a2.134 2.134 0 0 0-.235 1.023h-1.571c0-.664.153-1.245.458-1.742a3.125 3.125 0 0 1 1.257-1.156c.533-.277 1.138-.415 1.817-.415.685 0 1.289.136 1.811.41.525.27.935.639 1.23 1.108.295.465.442.991.442 1.577 0 .404-.076.8-.229 1.187-.149.388-.41.819-.783 1.295-.373.472-.891 1.046-1.555 1.72l-2.168 2.27v.079h4.911V197h-7.18Zm12.997.181c-.842-.003-1.561-.225-2.157-.666-.597-.44-1.053-1.081-1.369-1.923-.316-.841-.474-1.855-.474-3.041 0-1.183.158-2.193.474-3.031.319-.838.777-1.477 1.374-1.918.6-.44 1.317-.66 2.152-.66.834 0 1.55.222 2.147.666.596.44 1.052 1.079 1.368 1.917.32.835.48 1.843.48 3.026 0 1.189-.158 2.205-.474 3.047-.316.838-.773 1.479-1.369 1.923-.597.44-1.314.66-2.152.66Zm0-1.422c.739 0 1.316-.361 1.731-1.081.419-.721.629-1.764.629-3.127 0-.906-.096-1.671-.288-2.296-.188-.629-.46-1.104-.815-1.428a1.788 1.788 0 0 0-1.257-.49c-.735 0-1.312.363-1.731 1.087-.419.724-.631 1.767-.634 3.127 0 .909.094 1.678.282 2.306.192.625.464 1.099.815 1.422.352.32.774.48 1.268.48Zm9.682 1.39c-.731 0-1.384-.126-1.96-.378-.571-.252-1.024-.602-1.358-1.049a2.789 2.789 0 0 1-.533-1.566h1.673c.021.323.129.603.325.841.199.235.458.416.777.543.32.128.675.192 1.066.192.43 0 .809-.074 1.14-.223.334-.15.595-.357.783-.624.188-.27.282-.58.282-.932 0-.366-.094-.687-.282-.964-.185-.281-.457-.501-.815-.661-.355-.159-.785-.239-1.289-.239h-.922v-1.343h.922c.405 0 .76-.072 1.065-.218.309-.146.55-.348.724-.607.175-.263.262-.57.262-.922 0-.337-.077-.63-.23-.879a1.537 1.537 0 0 0-.639-.591 2.074 2.074 0 0 0-.969-.213c-.355 0-.687.066-.996.197a1.843 1.843 0 0 0-.746.554 1.423 1.423 0 0 0-.309.858h-1.593c.018-.59.192-1.108.522-1.556a3.378 3.378 0 0 1 1.321-1.049 4.302 4.302 0 0 1 1.822-.378c.7 0 1.303.136 1.811.41.512.27.906.63 1.183 1.081.28.451.419.945.415 1.481.004.611-.167 1.129-.511 1.555-.341.427-.796.712-1.364.858v.085c.725.11 1.286.398 1.683.863.402.465.601 1.042.597 1.731a2.684 2.684 0 0 1-.501 1.614c-.333.476-.79.851-1.369 1.124-.578.27-1.241.405-1.987.405Zm6.619-.048c-.291 0-.542-.103-.751-.309a1.027 1.027 0 0 1-.314-.756c0-.291.104-.54.314-.746.209-.209.46-.314.751-.314s.541.105.751.314c.21.206.314.455.314.746 0 .195-.049.375-.149.538-.096.16-.224.288-.383.383-.16.096-.338.144-.533.144Zm6.58.08c-.842-.003-1.561-.225-2.158-.666-.596-.44-1.052-1.081-1.369-1.923-.316-.841-.474-1.855-.474-3.041 0-1.183.158-2.193.474-3.031.32-.838.778-1.477 1.375-1.918.6-.44 1.317-.66 2.152-.66.834 0 1.55.222 2.146.666.597.44 1.053 1.079 1.369 1.917.32.835.48 1.843.48 3.026 0 1.189-.158 2.205-.474 3.047-.316.838-.773 1.479-1.369 1.923-.597.44-1.314.66-2.152.66Zm0-1.422c.738 0 1.315-.361 1.731-1.081.419-.721.628-1.764.628-3.127 0-.906-.095-1.671-.287-2.296-.188-.629-.46-1.104-.815-1.428a1.788 1.788 0 0 0-1.257-.49c-.735 0-1.312.363-1.731 1.087-.419.724-.631 1.767-.634 3.127 0 .909.094 1.678.282 2.306.192.625.463 1.099.815 1.422.352.32.774.48 1.268.48Zm6.56 1.342c-.292 0-.542-.103-.751-.309a1.028 1.028 0 0 1-.315-.756c0-.291.105-.54.315-.746.209-.209.459-.314.751-.314.291 0 .541.105.751.314.209.206.314.455.314.746 0 .195-.05.375-.149.538-.096.16-.224.288-.384.383-.16.096-.337.144-.532.144Zm5.997-11.01V197h-1.651v-9.258h-.064l-2.61 1.705v-1.577l2.722-1.779h1.603Zm7.09 0V197h-1.651v-9.258h-.064l-2.61 1.705v-1.577l2.722-1.779h1.603Zm6.749 11.058c-.731 0-1.385-.126-1.96-.378-.572-.252-1.025-.602-1.358-1.049a2.782 2.782 0 0 1-.533-1.566h1.673c.021.323.129.603.325.841.198.235.458.416.777.543.32.128.675.192 1.066.192.429 0 .809-.074 1.139-.223.334-.15.595-.357.784-.624.188-.27.282-.58.282-.932 0-.366-.094-.687-.282-.964-.185-.281-.457-.501-.815-.661-.356-.159-.785-.239-1.29-.239h-.921v-1.343h.921c.405 0 .76-.072 1.066-.218.309-.146.55-.348.724-.607.174-.263.261-.57.261-.922 0-.337-.076-.63-.229-.879a1.537 1.537 0 0 0-.639-.591 2.076 2.076 0 0 0-.969-.213c-.356 0-.688.066-.997.197a1.84 1.84 0 0 0-.745.554 1.423 1.423 0 0 0-.309.858h-1.593c.018-.59.192-1.108.522-1.556a3.378 3.378 0 0 1 1.321-1.049 4.302 4.302 0 0 1 1.822-.378c.699 0 1.303.136 1.811.41.511.27.905.63 1.182 1.081.281.451.419.945.416 1.481.003.611-.167 1.129-.511 1.555-.341.427-.796.712-1.364.858v.085c.724.11 1.285.398 1.683.863.401.465.6 1.042.597 1.731a2.697 2.697 0 0 1-.501 1.614c-.334.476-.79.851-1.369 1.124-.579.27-1.241.405-1.987.405Zm6.619-.048c-.292 0-.542-.103-.751-.309a1.028 1.028 0 0 1-.315-.756c0-.291.105-.54.315-.746.209-.209.459-.314.751-.314.291 0 .541.105.751.314.209.206.314.455.314.746 0 .195-.05.375-.149.538-.096.16-.224.288-.384.383a1.011 1.011 0 0 1-.532.144Zm6.579.048c-.731 0-1.384-.126-1.96-.378-.572-.252-1.024-.602-1.358-1.049a2.789 2.789 0 0 1-.533-1.566h1.673c.021.323.129.603.325.841.199.235.458.416.777.543.32.128.675.192 1.066.192.429 0 .809-.074 1.14-.223.334-.15.595-.357.783-.624.188-.27.282-.58.282-.932 0-.366-.094-.687-.282-.964-.185-.281-.457-.501-.815-.661-.355-.159-.785-.239-1.289-.239h-.922v-1.343h.922c.405 0 .76-.072 1.065-.218.309-.146.55-.348.724-.607.174-.263.261-.57.261-.922 0-.337-.076-.63-.229-.879a1.537 1.537 0 0 0-.639-.591 2.074 2.074 0 0 0-.969-.213c-.355 0-.687.066-.996.197a1.843 1.843 0 0 0-.746.554 1.423 1.423 0 0 0-.309.858h-1.593c.018-.59.192-1.108.522-1.556a3.378 3.378 0 0 1 1.321-1.049 4.302 4.302 0 0 1 1.822-.378c.7 0 1.303.136 1.811.41.512.27.906.63 1.183 1.081.28.451.419.945.415 1.481.004.611-.167 1.129-.511 1.555-.341.427-.796.712-1.364.858v.085c.725.11 1.286.398 1.683.863.402.465.601 1.042.597 1.731a2.684 2.684 0 0 1-.501 1.614c-.334.476-.79.851-1.369 1.124-.579.27-1.241.405-1.987.405Zm6.238-.149 4.762-9.418v-.08h-5.508v-1.411h7.213v1.459l-4.746 9.45h-1.721Zm-309.174.165c-.806 0-1.5-.172-2.083-.517a3.506 3.506 0 0 1-1.342-1.464c-.313-.633-.469-1.373-.469-2.222 0-.838.156-1.576.469-2.216a3.635 3.635 0 0 1 1.321-1.496c.568-.359 1.232-.538 1.992-.538.462 0 .91.076 1.343.229.433.152.822.392 1.166.719.345.327.616.751.815 1.273.199.518.298 1.149.298 1.891v.564H2.077v-1.193h4.944c0-.419-.086-.79-.256-1.113a1.929 1.929 0 0 0-.72-.772c-.305-.189-.663-.283-1.075-.283-.448 0-.838.11-1.172.331-.33.216-.586.5-.767.852a2.459 2.459 0 0 0-.266 1.134v.933c0 .547.095 1.012.287 1.395.196.384.467.677.815.879.348.199.755.298 1.22.298.302 0 .577-.042.826-.127a1.708 1.708 0 0 0 1.06-1.039l1.507.272c-.12.443-.337.832-.65 1.166a3.14 3.14 0 0 1-1.166.772c-.465.182-.996.272-1.593.272Zm6.344-8.347 1.806 3.186 1.822-3.186h1.742l-2.552 4.091L16.806 197h-1.742l-1.843-3.058L11.383 197H9.636l2.546-4.091-2.514-4.091h1.747Zm9.371 8.363c-.518 0-.987-.096-1.406-.288a2.368 2.368 0 0 1-.996-.846c-.242-.37-.362-.823-.362-1.359 0-.461.088-.841.266-1.14.177-.298.417-.534.72-.708a3.73 3.73 0 0 1 1.011-.394 9.981 9.981 0 0 1 1.14-.203l1.193-.138c.306-.039.528-.101.666-.187.139-.085.208-.223.208-.415v-.037c0-.466-.132-.826-.394-1.082-.26-.255-.647-.383-1.162-.383-.536 0-.958.119-1.267.357-.306.234-.517.495-.634.783l-1.497-.341c.178-.497.437-.899.778-1.204a3.14 3.14 0 0 1 1.188-.671 4.64 4.64 0 0 1 1.411-.213c.327 0 .673.039 1.039.117.37.074.714.213 1.033.415.323.203.588.492.794.869.206.372.309.857.309 1.454V197h-1.556v-1.119h-.064a2.272 2.272 0 0 1-.463.608 2.47 2.47 0 0 1-.794.495c-.323.131-.71.197-1.16.197Zm.346-1.278c.44 0 .817-.087 1.13-.261.316-.174.555-.402.719-.682a1.77 1.77 0 0 0 .25-.911v-1.055c-.057.057-.167.11-.33.16-.16.046-.343.087-.549.123-.206.032-.406.062-.602.09a59.82 59.82 0 0 0-.49.064 3.965 3.965 0 0 0-.847.197 1.461 1.461 0 0 0-.607.4c-.15.17-.224.397-.224.682 0 .394.146.692.437.894.291.199.662.299 1.113.299ZM26.945 197v-8.182h1.529v1.332h.101c.17-.451.45-.803.836-1.055.387-.256.85-.383 1.39-.383.548 0 1.006.127 1.375.383.373.256.648.607.826 1.055h.085a2.3 2.3 0 0 1 .932-1.044c.426-.263.934-.394 1.523-.394.743 0 1.348.232 1.817.697.472.466.708 1.167.708 2.104V197h-1.592v-5.337c0-.554-.151-.956-.453-1.204a1.645 1.645 0 0 0-1.081-.373c-.519 0-.922.16-1.21.479-.287.316-.431.723-.431 1.22V197h-1.587v-5.439c0-.443-.139-.8-.416-1.07-.277-.27-.637-.405-1.081-.405-.302 0-.58.08-.837.24a1.754 1.754 0 0 0-.612.655c-.153.28-.23.605-.23.975V197h-1.592Zm13.257 3.068v-11.25h1.555v1.327h.134a4.32 4.32 0 0 1 .4-.592c.173-.223.415-.419.724-.586.309-.17.717-.255 1.225-.255a3.2 3.2 0 0 1 1.768.5c.519.334.925.815 1.22 1.444.298.628.447 1.385.447 2.269 0 .884-.147 1.642-.442 2.275-.294.628-.7 1.113-1.214 1.454a3.148 3.148 0 0 1-1.763.506c-.498 0-.904-.084-1.22-.251a2.305 2.305 0 0 1-.735-.585 4.46 4.46 0 0 1-.41-.597h-.096v4.341h-1.593Zm1.56-7.159c0 .575.084 1.08.251 1.513.167.433.409.772.724 1.017.317.242.704.362 1.162.362.476 0 .873-.126 1.193-.378.32-.255.561-.602.724-1.038a4.11 4.11 0 0 0 .25-1.476c0-.54-.081-1.024-.244-1.454a2.22 2.22 0 0 0-.725-1.017c-.32-.249-.719-.373-1.198-.373-.462 0-.852.119-1.172.357-.316.237-.556.569-.72.996-.163.426-.244.923-.244 1.491Zm9.29-6.818V197H49.46v-10.909h1.593Zm5.67 11.074c-.807 0-1.5-.172-2.083-.517a3.506 3.506 0 0 1-1.343-1.464c-.312-.633-.468-1.373-.468-2.222 0-.838.156-1.576.468-2.216a3.635 3.635 0 0 1 1.321-1.496c.569-.359 1.233-.538 1.993-.538.461 0 .909.076 1.342.229.433.152.822.392 1.166.719.345.327.617.751.816 1.273.198.518.298 1.149.298 1.891v.564h-6.504v-1.193h4.943c0-.419-.085-.79-.256-1.113a1.928 1.928 0 0 0-.719-.772c-.305-.189-.664-.283-1.076-.283-.447 0-.838.11-1.172.331-.33.216-.586.5-.767.852a2.46 2.46 0 0 0-.266 1.134v.933c0 .547.096 1.012.288 1.395.195.384.467.677.815.879.348.199.754.298 1.22.298.301 0 .577-.042.825-.127a1.708 1.708 0 0 0 1.06-1.039l1.508.272a2.743 2.743 0 0 1-.65 1.166c-.31.33-.698.588-1.167.772-.465.182-.996.272-1.593.272Zm6.326-.064c-.29 0-.541-.103-.75-.309a1.03 1.03 0 0 1-.315-.756c0-.291.105-.54.314-.746.21-.209.46-.314.751-.314s.542.105.751.314c.21.206.315.455.315.746a1.09 1.09 0 0 1-.533.921c-.16.096-.337.144-.533.144Zm4.792-4.959V197h-1.593v-8.182h1.529v1.332h.1c.19-.433.484-.781.885-1.044.405-.263.915-.394 1.529-.394.557 0 1.046.117 1.465.351.419.231.744.575.975 1.034.23.458.346 1.024.346 1.699V197h-1.593v-5.012c0-.593-.154-1.057-.463-1.391-.31-.337-.734-.506-1.273-.506-.37 0-.698.08-.986.24-.284.16-.51.394-.676.703-.164.305-.245.675-.245 1.108Zm10.898 5.023c-.806 0-1.5-.172-2.083-.517a3.506 3.506 0 0 1-1.342-1.464c-.313-.633-.469-1.373-.469-2.222 0-.838.157-1.576.469-2.216a3.635 3.635 0 0 1 1.321-1.496c.568-.359 1.232-.538 1.992-.538.462 0 .91.076 1.343.229.433.152.822.392 1.166.719.344.327.616.751.815 1.273.199.518.298 1.149.298 1.891v.564h-6.504v-1.193h4.944c0-.419-.086-.79-.256-1.113a1.93 1.93 0 0 0-.72-.772c-.305-.189-.663-.283-1.075-.283-.448 0-.838.11-1.172.331-.33.216-.586.5-.767.852a2.46 2.46 0 0 0-.266 1.134v.933c0 .547.096 1.012.287 1.395.196.384.467.677.815.879.348.199.755.298 1.22.298.302 0 .577-.042.826-.127a1.708 1.708 0 0 0 1.06-1.039l1.507.272c-.12.443-.337.832-.65 1.166-.309.33-.698.588-1.166.772-.466.182-.996.272-1.593.272Zm9.097-8.347v1.279h-4.47v-1.279h4.47Zm-3.27-1.96h1.592v7.74c0 .309.046.541.138.697a.724.724 0 0 0 .357.315c.15.053.31.08.485.08.128 0 .24-.009.335-.027l.224-.043.288 1.316a3.155 3.155 0 0 1-1.033.171 2.81 2.81 0 0 1-1.172-.224 2.008 2.008 0 0 1-.88-.725c-.223-.326-.335-.736-.335-1.23v-8.07Zm42.102 79.309h66.666a4.168 4.168 0 0 1 4.167 4.166V287a4.167 4.167 0 0 1-4.167 4.167h-66.666A4.168 4.168 0 0 1 122.5 287v-16.667a4.168 4.168 0 0 1 4.167-4.166Zm0 33.333h66.666a4.17 4.17 0 0 1 2.947 1.22 4.17 4.17 0 0 1 1.22 2.947v16.666a4.17 4.17 0 0 1-1.22 2.947 4.17 4.17 0 0 1-2.947 1.22h-66.666a4.17 4.17 0 0 1-2.947-1.22 4.17 4.17 0 0 1-1.22-2.947v-16.666a4.17 4.17 0 0 1 1.22-2.947 4.17 4.17 0 0 1 2.947-1.22Zm0 33.333h66.666A4.168 4.168 0 0 1 197.5 337v16.667a4.167 4.167 0 0 1-4.167 4.166h-66.666a4.167 4.167 0 0 1-4.167-4.166V337a4.167 4.167 0 0 1 4.167-4.167Zm20.833-50h4.167V274.5H147.5v8.333Zm0 33.334h4.167v-8.334H147.5v8.334Zm0 33.333h4.167v-8.333H147.5v8.333Zm-16.667-75v8.333h8.334V274.5h-8.334Zm0 33.333v8.334h8.334v-8.334h-8.334Zm0 33.334v8.333h8.334v-8.333h-8.334ZM147.888 381h-3.532v-10.909H148c1.069 0 1.987.218 2.754.655a4.322 4.322 0 0 1 1.763 1.87c.412.809.618 1.781.618 2.913 0 1.137-.208 2.113-.624 2.93a4.377 4.377 0 0 1-1.789 1.886c-.782.437-1.726.655-2.834.655Zm-1.886-1.438h1.795c.831 0 1.522-.156 2.072-.469a2.947 2.947 0 0 0 1.236-1.369c.274-.6.41-1.332.41-2.195 0-.855-.136-1.582-.41-2.178a2.892 2.892 0 0 0-1.209-1.358c-.536-.309-1.202-.464-1.998-.464h-1.896v8.033Zm17.984-9.471V381h-1.512l-5.545-8.001h-.102V381h-1.646v-10.909h1.524l5.55 8.011h.101v-8.011h1.63Zm8.351 2.866a1.553 1.553 0 0 0-.703-1.172c-.412-.281-.93-.421-1.555-.421-.448 0-.835.071-1.161.213a1.79 1.79 0 0 0-.762.575 1.357 1.357 0 0 0-.266.826c0 .259.06.483.181.671.124.188.286.346.484.474.203.125.419.229.65.315.231.081.453.149.666.202l1.065.277c.348.085.705.201 1.071.346.366.146.705.337 1.018.575.312.238.564.533.756.885.195.351.293.772.293 1.262 0 .618-.16 1.167-.479 1.646-.317.479-.776.858-1.38 1.135-.6.277-1.326.415-2.179.415-.816 0-1.523-.13-2.12-.389-.596-.259-1.063-.627-1.401-1.102-.337-.48-.523-1.048-.559-1.705h1.651c.032.394.16.723.384.986.227.259.517.452.868.58.355.124.744.187 1.167.187.465 0 .879-.073 1.241-.219.366-.149.653-.355.863-.618.209-.266.314-.577.314-.932 0-.323-.092-.588-.277-.794a2.048 2.048 0 0 0-.74-.511 7.227 7.227 0 0 0-1.05-.357l-1.289-.351c-.873-.238-1.566-.588-2.077-1.05-.508-.461-.762-1.072-.762-1.832 0-.629.17-1.177.511-1.646.341-.469.803-.833 1.385-1.092.583-.263 1.24-.394 1.971-.394.739 0 1.39.129 1.955.389.568.259 1.016.616 1.342 1.07.327.451.498.97.512 1.556h-1.588ZM160 16.667a16.666 16.666 0 1 1 0 33.331 16.666 16.666 0 0 1 0-33.331Zm0 41.666c18.417 0 33.333 7.459 33.333 16.667v8.333h-66.666V75c0-9.208 14.916-16.667 33.333-16.667ZM133.012 93.09h1.651v7.176c0 .763-.179 1.44-.538 2.029a3.757 3.757 0 0 1-1.512 1.385c-.65.334-1.412.501-2.286.501-.87 0-1.63-.167-2.279-.501a3.76 3.76 0 0 1-1.513-1.385c-.359-.589-.538-1.266-.538-2.029v-7.175h1.646v7.042c0 .493.108.932.325 1.316.22.383.531.685.932.905.401.217.877.325 1.427.325.554 0 1.032-.108 1.433-.325.405-.22.714-.522.927-.905.217-.384.325-.823.325-1.316v-7.042Zm7.736 2.728v1.279h-4.469v-1.279h4.469Zm-3.271-1.96h1.593v7.74c0 .309.046.541.138.697a.73.73 0 0 0 .357.315c.149.053.311.08.485.08.128 0 .24-.009.336-.027l.223-.043.288 1.316a3.163 3.163 0 0 1-1.033.171 2.81 2.81 0 0 1-1.172-.224 2.01 2.01 0 0 1-.879-.725c-.224-.326-.336-.736-.336-1.23v-8.07ZM142.51 104v-8.182h1.592V104h-1.592Zm.804-9.444c-.277 0-.515-.093-.714-.277a.902.902 0 0 1-.293-.671.89.89 0 0 1 .293-.672c.199-.188.437-.282.714-.282.277 0 .513.094.708.282a.883.883 0 0 1 .299.672.89.89 0 0 1-.299.67.993.993 0 0 1-.708.278Zm4.524-1.465V104h-1.593V93.09h1.593ZM149.98 104v-8.182h1.593V104h-1.593Zm.805-9.444c-.277 0-.515-.093-.714-.277a.902.902 0 0 1-.293-.671.89.89 0 0 1 .293-.672c.199-.188.437-.282.714-.282.277 0 .513.094.708.282a.882.882 0 0 1 .298.672.889.889 0 0 1-.298.67.993.993 0 0 1-.708.278Zm9.062 3.26-1.444.255a1.708 1.708 0 0 0-.287-.527 1.425 1.425 0 0 0-.522-.41c-.221-.107-.496-.16-.826-.16-.451 0-.828.101-1.129.304-.302.199-.453.456-.453.772 0 .273.101.494.303.66.203.168.53.304.981.41l1.299.299c.753.174 1.314.442 1.684.804.369.363.554.833.554 1.412 0 .49-.143.927-.427 1.31-.28.38-.673.679-1.177.895-.501.217-1.081.325-1.742.325-.916 0-1.663-.195-2.242-.586-.579-.394-.934-.953-1.066-1.678l1.54-.234c.096.401.293.705.591.911.298.202.687.303 1.167.303.522 0 .939-.108 1.251-.325.313-.22.469-.488.469-.804a.836.836 0 0 0-.287-.644c-.189-.174-.478-.306-.869-.395l-1.385-.303c-.763-.174-1.328-.451-1.694-.831-.362-.38-.543-.861-.543-1.444 0-.483.135-.905.405-1.267.27-.363.643-.645 1.119-.847.475-.206 1.021-.31 1.635-.31.884 0 1.58.192 2.088.576.508.38.843.89 1.007 1.529Zm4.292 6.365c-.519 0-.987-.096-1.407-.288a2.367 2.367 0 0 1-.996-.846c-.241-.37-.362-.823-.362-1.359 0-.461.089-.841.266-1.14.178-.298.418-.534.72-.708a3.74 3.74 0 0 1 1.012-.394c.373-.09.753-.157 1.14-.203l1.193-.138c.305-.04.527-.101.666-.187.138-.085.207-.223.207-.415v-.037c0-.466-.131-.826-.394-1.082-.259-.255-.646-.383-1.161-.383-.536 0-.959.119-1.268.357-.305.234-.516.495-.634.783l-1.496-.341c.177-.497.436-.899.777-1.204a3.162 3.162 0 0 1 1.188-.671 4.642 4.642 0 0 1 1.412-.213c.326 0 .673.039 1.038.117.37.074.714.213 1.034.415a2.3 2.3 0 0 1 .793.869c.206.372.309.857.309 1.454V104h-1.555v-1.119h-.064a2.268 2.268 0 0 1-.463.608 2.473 2.473 0 0 1-.794.495c-.323.131-.71.197-1.161.197Zm.346-1.278c.44 0 .817-.087 1.129-.261a1.83 1.83 0 0 0 .719-.682c.167-.284.251-.588.251-.911v-1.055c-.057.057-.167.11-.331.16a5.23 5.23 0 0 1-.548.123c-.206.032-.407.062-.602.09l-.49.064a3.969 3.969 0 0 0-.847.197 1.457 1.457 0 0 0-.607.4c-.15.17-.224.397-.224.682 0 .394.145.692.437.894.291.199.662.299 1.113.299Zm9.632-7.085v1.279h-4.469v-1.279h4.469Zm-3.271-1.96h1.593v7.74c0 .309.046.541.139.697a.723.723 0 0 0 .356.315c.15.053.311.08.485.08.128 0 .24-.009.336-.027l.223-.043.288 1.316a3.163 3.163 0 0 1-1.033.171 2.81 2.81 0 0 1-1.172-.224 2.01 2.01 0 0 1-.879-.725c-.224-.326-.336-.736-.336-1.23v-8.07Zm8.471 10.307c-.806 0-1.5-.172-2.083-.517a3.51 3.51 0 0 1-1.342-1.464c-.312-.633-.469-1.373-.469-2.222 0-.838.157-1.576.469-2.216a3.637 3.637 0 0 1 1.321-1.496c.568-.359 1.232-.538 1.992-.538.462 0 .909.076 1.343.229.433.152.822.392 1.166.719.345.327.616.75.815 1.273.199.518.298 1.149.298 1.89v.565h-6.503v-1.193h4.943c0-.419-.085-.79-.256-1.113a1.93 1.93 0 0 0-.719-.772 2.008 2.008 0 0 0-1.076-.283c-.447 0-.838.11-1.172.33a2.22 2.22 0 0 0-.767.853 2.454 2.454 0 0 0-.266 1.135v.932c0 .547.096 1.012.287 1.395.196.384.467.677.815.879.348.199.755.298 1.22.298.302 0 .577-.042.826-.127a1.712 1.712 0 0 0 1.06-1.039l1.507.272c-.12.443-.337.832-.65 1.166a3.14 3.14 0 0 1-1.166.772c-.465.182-.996.272-1.593.272Zm10.46-3.558v-4.789h1.598V104h-1.566v-1.417h-.085c-.188.437-.49.801-.905 1.092-.412.288-.925.432-1.54.432-.525 0-.991-.116-1.395-.347a2.42 2.42 0 0 1-.948-1.038c-.228-.459-.341-1.025-.341-1.7v-5.204h1.592v5.013c0 .557.155 1.001.464 1.331.309.331.71.496 1.204.496.298 0 .594-.075.889-.224a1.88 1.88 0 0 0 .741-.677c.198-.301.296-.685.292-1.15Zm3.738 3.393v-8.182h1.54v1.3h.085a1.98 1.98 0 0 1 .788-1.039c.38-.255.81-.383 1.29-.383a6.8 6.8 0 0 1 .676.037v1.523a2.863 2.863 0 0 0-.341-.058 3.247 3.247 0 0 0-.49-.037c-.376 0-.712.08-1.007.24a1.778 1.778 0 0 0-.948 1.603V104h-1.593Z"/>
  <path fill="#C1C1C1" d="M275 56.99a1.5 1.5 0 0 0-3 0h3Zm0 108.019V56.991h-3v108.018h3Z"/>
  <path fill="#C1C1C1" d="M224 55.5a1.5 1.5 0 0 0 0 3v-3Zm147.061 2.56a1.502 1.502 0 0 0 0-2.12l-9.546-9.547a1.5 1.5 0 0 0-2.122 2.122L367.879 57l-8.486 8.485a1.501 1.501 0 0 0 2.122 2.122l9.546-9.546ZM224 58.5h146v-3H224v3Zm54.822 257.874.001 1.5 1.498-.002.001-1.497-1.5-.001Zm1.148-99.934a1.5 1.5 0 0 0-2.121-.002l-9.554 9.538a1.5 1.5 0 1 0 2.119 2.123l8.493-8.478 8.478 8.493a1.5 1.5 0 0 0 2.123-2.119l-9.538-9.555Zm-54.148 98.478a1.5 1.5 0 1 0 .002 3l-.002-3Zm54.5 1.457.087-98.874-3-.002-.087 98.873 3 .003Zm-1.501-1.501-52.999.044.002 3 52.999-.044-.002-3ZM42 316h-1.5v1.5H42V316Zm54 1.5a1.5 1.5 0 0 0 0-3v3Zm-54 0h54v-3H42v3Zm1.5-1.5v-86h-3v86h3ZM42 57v-1.5h-1.5V57H42Zm-1.06 104.061a1.502 1.502 0 0 0 2.12 0l9.547-9.546a1.5 1.5 0 0 0-2.122-2.122L42 157.879l-8.485-8.486a1.501 1.501 0 0 0-2.122 2.122l9.546 9.546ZM103 58.5a1.5 1.5 0 0 0 0-3v3ZM40.5 57v103h3V57h-3Zm1.5 1.5h61v-3H42v3Z"/>
  <path fill="#fff" d="M457.167 65.333c.333-2.75.583-5.5.583-8.333s-.25-5.583-.583-8.333h14.083c.667 2.666 1.083 5.458 1.083 8.333s-.416 5.667-1.083 8.333M449.792 88.5c2.5-4.625 4.416-9.625 5.75-14.833h12.291A33.459 33.459 0 0 1 449.792 88.5Zm-1.042-23.167h-19.5c-.417-2.75-.667-5.5-.667-8.333s.25-5.625.667-8.333h19.5c.375 2.708.667 5.5.667 8.333s-.292 5.583-.667 8.333ZM439 90.167c-3.458-5-6.25-10.542-7.958-16.5h15.916c-1.708 5.958-4.5 11.5-7.958 16.5Zm-16.667-49.834h-12.166a33.012 33.012 0 0 1 18-14.833c-2.5 4.625-4.375 9.625-5.834 14.833Zm-12.166 33.334h12.166c1.459 5.208 3.334 10.208 5.834 14.833a33.366 33.366 0 0 1-18-14.833Zm-3.417-8.334c-.667-2.666-1.083-5.458-1.083-8.333s.416-5.667 1.083-8.333h14.083c-.333 2.75-.583 5.5-.583 8.333s.25 5.583.583 8.333M439 23.792c3.458 5 6.25 10.583 7.958 16.541h-15.916c1.708-5.958 4.5-11.541 7.958-16.541Zm28.833 16.541h-12.291a65.248 65.248 0 0 0-5.75-14.833 33.28 33.28 0 0 1 18.041 14.833Zm-28.833-25c-23.042 0-41.667 18.75-41.667 41.667A41.667 41.667 0 1 0 439 15.333Z"/>
</svg>