<svg xmlns="http://www.w3.org/2000/svg" width="487" height="410" fill="none" viewBox="0 0 487 410">
  <path fill="#fff" d="M223.32 197v-1.193l3.692-3.825c.394-.415.719-.779.975-1.092.259-.316.452-.616.58-.9.128-.284.192-.586.192-.905a1.68 1.68 0 0 0-.256-.938 1.67 1.67 0 0 0-.698-.613 2.222 2.222 0 0 0-.996-.218c-.39 0-.731.08-1.022.24-.292.16-.515.385-.672.676a2.134 2.134 0 0 0-.234 1.023h-1.571c0-.664.152-1.245.458-1.742a3.112 3.112 0 0 1 1.257-1.156c.533-.277 1.138-.415 1.816-.415.686 0 1.289.136 1.811.41.526.27.936.639 1.231 1.108.295.465.442.991.442 1.577 0 .404-.076.8-.229 1.187-.149.388-.41.819-.783 1.295-.373.472-.891 1.046-1.555 1.72l-2.168 2.27v.079h4.911V197h-7.181Zm13.338-10.909V197h-1.651v-9.258h-.064l-2.61 1.705v-1.577l2.722-1.779h1.603Zm6.76 11.058a4.408 4.408 0 0 1-1.438-.266 3.389 3.389 0 0 1-1.279-.852c-.383-.398-.69-.933-.921-1.604-.227-.671-.341-1.509-.341-2.514 0-.952.094-1.797.282-2.536.192-.738.467-1.361.826-1.869a3.66 3.66 0 0 1 1.3-1.167 3.624 3.624 0 0 1 1.71-.399c.649 0 1.226.128 1.731.383.504.256.912.609 1.225 1.06.316.451.517.964.602 1.54h-1.625a2.099 2.099 0 0 0-.655-1.114c-.327-.287-.753-.431-1.278-.431-.799 0-1.423.348-1.87 1.044-.444.696-.668 1.664-.671 2.903h.08a2.95 2.95 0 0 1 .692-.788 3.254 3.254 0 0 1 2.014-.687c.632 0 1.203.154 1.715.463.515.305.925.728 1.23 1.268.306.54.458 1.157.458 1.853s-.158 1.327-.474 1.891a3.478 3.478 0 0 1-1.321 1.343c-.568.326-1.232.486-1.992.479Zm-.005-1.385c.419 0 .793-.103 1.124-.309.33-.206.591-.483.783-.831.191-.348.287-.737.287-1.166 0-.419-.094-.801-.282-1.146a2.138 2.138 0 0 0-.767-.82 2.047 2.047 0 0 0-1.108-.303 2.124 2.124 0 0 0-1.582.681 2.437 2.437 0 0 0-.479.735 2.237 2.237 0 0 0-.171.869 2.32 2.32 0 0 0 1.065 1.976c.334.209.711.314 1.13.314Zm6.305 1.337c-.291 0-.541-.103-.751-.309a1.03 1.03 0 0 1-.314-.756c0-.291.105-.54.314-.746.21-.209.46-.314.751-.314s.542.105.751.314c.21.206.315.455.315.746a1.09 1.09 0 0 1-.533.921c-.16.096-.338.144-.533.144Zm6.603.048c-.668 0-1.268-.128-1.801-.383a3.281 3.281 0 0 1-1.268-1.066 2.819 2.819 0 0 1-.506-1.544h1.598c.039.468.247.854.624 1.155.376.302.827.453 1.353.453.419 0 .79-.096 1.113-.287a2.07 2.07 0 0 0 .767-.805c.188-.341.282-.73.282-1.166 0-.444-.096-.84-.287-1.188a2.122 2.122 0 0 0-.794-.82 2.235 2.235 0 0 0-1.151-.304c-.33 0-.662.057-.996.17a2.311 2.311 0 0 0-.809.448l-1.508-.224.613-5.497h5.998v1.411h-4.629l-.347 3.053h.064a2.54 2.54 0 0 1 .847-.517 3.12 3.12 0 0 1 1.14-.208c.664 0 1.256.158 1.774.474.522.316.932.748 1.231 1.295.301.543.451 1.168.447 1.875.004.706-.156 1.337-.479 1.891-.32.554-.764.99-1.332 1.31-.565.316-1.213.474-1.944.474Zm9.387 0c-.764 0-1.439-.131-2.025-.394-.582-.263-1.038-.625-1.369-1.087a2.617 2.617 0 0 1-.49-1.576 2.781 2.781 0 0 1 1.076-2.248c.334-.263.707-.43 1.119-.501v-.064a2.2 2.2 0 0 1-1.305-.873 2.559 2.559 0 0 1-.485-1.556 2.556 2.556 0 0 1 .442-1.491 3.08 3.08 0 0 1 1.242-1.039c.525-.252 1.123-.378 1.795-.378.664 0 1.257.128 1.779.383.525.252.939.599 1.241 1.039.302.437.454.932.458 1.486a2.598 2.598 0 0 1-.501 1.556c-.33.451-.76.742-1.289.873v.064c.409.071.776.238 1.103.501.33.259.593.584.788.975.199.387.3.811.304 1.273a2.674 2.674 0 0 1-.501 1.576c-.33.462-.788.824-1.374 1.087-.583.263-1.252.394-2.008.394Zm0-1.348c.451 0 .841-.074 1.171-.223a1.82 1.82 0 0 0 .768-.634c.181-.274.273-.593.277-.959a1.797 1.797 0 0 0-.299-1.007 1.997 1.997 0 0 0-.783-.687 2.477 2.477 0 0 0-1.134-.25c-.43 0-.812.083-1.146.25a1.992 1.992 0 0 0-.788.687 1.755 1.755 0 0 0-.282 1.007c-.004.366.083.685.261.959.181.27.438.481.772.634.334.149.728.223 1.183.223Zm0-5.076c.362 0 .683-.073.964-.218.28-.146.5-.348.66-.607.164-.26.247-.563.251-.911a1.697 1.697 0 0 0-.245-.895 1.563 1.563 0 0 0-.656-.592 2.127 2.127 0 0 0-.974-.213c-.377 0-.707.071-.991.213a1.555 1.555 0 0 0-.655.592 1.636 1.636 0 0 0-.229.895c-.004.348.074.651.234.911.16.259.38.461.66.607.285.145.611.218.981.218Zm6.539 6.376c-.291 0-.541-.103-.751-.309a1.03 1.03 0 0 1-.314-.756c0-.291.105-.54.314-.746.21-.209.46-.314.751-.314.292 0 .542.105.752.314.209.206.314.455.314.746 0 .195-.05.375-.149.538-.096.16-.224.288-.384.383-.16.096-.337.144-.533.144Zm5.998-11.01V197h-1.651v-9.258h-.064l-2.61 1.705v-1.577l2.722-1.779h1.603Zm6.579-.149c.486.003.966.092 1.438.266.472.174.898.458 1.278.852.384.395.689.927.917 1.598.23.668.348 1.499.351 2.493 0 .956-.096 1.806-.287 2.552-.192.742-.467 1.369-.826 1.88-.355.511-.787.9-1.294 1.167-.508.266-1.08.399-1.716.399-.65 0-1.227-.128-1.731-.383a3.3 3.3 0 0 1-1.23-1.06 3.521 3.521 0 0 1-.592-1.566h1.625c.107.468.323.848.65 1.139.33.288.756.432 1.278.432.799 0 1.423-.348 1.87-1.044.447-.7.673-1.676.676-2.93h-.085a2.938 2.938 0 0 1-.692.789c-.274.22-.581.39-.922.511a3.241 3.241 0 0 1-1.092.181 3.27 3.27 0 0 1-1.715-.463 3.418 3.418 0 0 1-1.23-1.273c-.306-.54-.458-1.156-.458-1.849 0-.689.156-1.314.468-1.875a3.505 3.505 0 0 1 1.321-1.332c.568-.33 1.234-.491 1.998-.484Zm.005 1.385c-.415 0-.79.103-1.124.309-.33.202-.591.477-.783.825a2.324 2.324 0 0 0-.287 1.151c0 .422.092.806.277 1.15.188.341.443.613.767.815.326.199.699.299 1.118.299.313 0 .604-.061.874-.181.27-.121.506-.288.708-.501.203-.217.361-.462.474-.735.114-.274.171-.561.171-.863 0-.401-.096-.774-.288-1.119a2.24 2.24 0 0 0-.778-.831 2.035 2.035 0 0 0-1.129-.319Zm5.674 7.542v-1.331l4.715-7.447h1.049v1.96h-.666l-3.372 5.337v.086h6.462v1.395h-8.188Zm5.173 2.131v-2.536l.01-.607v-7.766h1.561V197h-1.571Zm5.531.101c-.291 0-.541-.103-.751-.309a1.03 1.03 0 0 1-.314-.756c0-.291.105-.54.314-.746.21-.209.46-.314.751-.314.292 0 .542.105.751.314.21.206.315.455.315.746 0 .195-.05.375-.149.538-.096.16-.224.288-.384.383-.16.096-.337.144-.533.144Zm5.998-11.01V197h-1.651v-9.258h-.064l-2.61 1.705v-1.577l2.722-1.779h1.603ZM310.524 197l4.762-9.418v-.08h-5.508v-1.411h7.212v1.459l-4.746 9.45h-1.72Zm7.211-2.131v-1.331l4.714-7.447h1.049v1.96h-.665l-3.372 5.337v.086h6.461v1.395h-8.187Zm5.172 2.131v-2.536l.011-.607v-7.766h1.56V197h-1.571ZM4.909 200.239c-.65 0-1.21-.086-1.678-.256-.465-.17-.845-.396-1.14-.677a2.831 2.831 0 0 1-.66-.921l1.368-.565c.096.157.224.322.384.496.163.177.383.328.66.452.281.125.641.187 1.082.187.603 0 1.102-.147 1.497-.442.394-.291.59-.757.59-1.396v-1.608h-.1a3.625 3.625 0 0 1-.416.58 2.244 2.244 0 0 1-.735.554c-.312.156-.72.234-1.22.234-.646 0-1.228-.15-1.747-.452-.515-.306-.923-.755-1.225-1.348-.298-.597-.448-1.33-.448-2.2 0-.87.148-1.616.443-2.237.298-.622.706-1.097 1.225-1.428a3.192 3.192 0 0 1 1.763-.5c.508 0 .918.085 1.23.255.313.167.556.363.73.586.178.224.314.421.41.592h.117v-1.327H8.6v8.363c0 .703-.163 1.28-.49 1.731a2.887 2.887 0 0 1-1.326 1.002c-.554.216-1.18.325-1.875.325Zm-.016-4.683c.458 0 .845-.106 1.161-.319.32-.217.561-.526.724-.927.167-.405.25-.89.25-1.454 0-.551-.08-1.035-.244-1.454-.164-.419-.403-.746-.72-.98-.315-.238-.706-.357-1.171-.357-.48 0-.88.124-1.199.373-.32.245-.56.578-.724 1.001-.16.423-.24.895-.24 1.417 0 .536.082 1.007.245 1.411.164.405.405.721.725.949.323.227.72.34 1.193.34Zm9.29 1.609c-.768 0-1.437-.176-2.009-.527a3.561 3.561 0 0 1-1.331-1.476c-.316-.632-.474-1.37-.474-2.216 0-.848.158-1.591.474-2.226a3.55 3.55 0 0 1 1.331-1.481c.572-.352 1.242-.527 2.009-.527.767 0 1.436.175 2.008.527a3.55 3.55 0 0 1 1.331 1.481c.317.635.475 1.378.475 2.226 0 .846-.159 1.584-.475 2.216a3.56 3.56 0 0 1-1.331 1.476c-.572.351-1.241.527-2.008.527Zm.005-1.337c.497 0 .909-.131 1.236-.394.326-.263.568-.613.724-1.049.16-.437.24-.918.24-1.444 0-.522-.08-1.001-.24-1.438a2.337 2.337 0 0 0-.724-1.06c-.327-.267-.739-.4-1.236-.4-.5 0-.916.133-1.247.4-.326.266-.57.619-.73 1.06a4.241 4.241 0 0 0-.234 1.438c0 .526.078 1.007.235 1.444.16.436.403.786.73 1.049.33.263.745.394 1.246.394Zm9.033 1.337c-.767 0-1.437-.176-2.009-.527a3.561 3.561 0 0 1-1.331-1.476c-.316-.632-.474-1.37-.474-2.216 0-.848.158-1.591.474-2.226a3.55 3.55 0 0 1 1.331-1.481c.572-.352 1.242-.527 2.009-.527.767 0 1.436.175 2.008.527a3.55 3.55 0 0 1 1.332 1.481c.316.635.474 1.378.474 2.226 0 .846-.158 1.584-.474 2.216a3.56 3.56 0 0 1-1.332 1.476c-.572.351-1.241.527-2.008.527Zm.005-1.337c.497 0 .91-.131 1.236-.394.326-.263.568-.613.724-1.049.16-.437.24-.918.24-1.444 0-.522-.08-1.001-.24-1.438a2.337 2.337 0 0 0-.724-1.06c-.327-.267-.739-.4-1.236-.4-.5 0-.916.133-1.246.4-.327.266-.57.619-.73 1.06a4.241 4.241 0 0 0-.235 1.438c0 .526.078 1.007.235 1.444.16.436.403.786.73 1.049.33.263.745.394 1.246.394Zm9.017 4.411c-.65 0-1.21-.086-1.678-.256-.465-.17-.845-.396-1.14-.677a2.832 2.832 0 0 1-.66-.921l1.368-.565c.096.157.224.322.384.496.163.177.383.328.66.452.281.125.641.187 1.082.187.603 0 1.102-.147 1.496-.442.395-.291.592-.757.592-1.396v-1.608h-.101a3.627 3.627 0 0 1-.416.58 2.244 2.244 0 0 1-.735.554c-.313.156-.72.234-1.22.234-.646 0-1.229-.15-1.747-.452-.515-.306-.923-.755-1.225-1.348-.298-.597-.447-1.33-.447-2.2 0-.87.147-1.616.442-2.237.298-.622.706-1.097 1.225-1.428a3.192 3.192 0 0 1 1.763-.5c.508 0 .918.085 1.23.255.313.167.556.363.73.586.178.224.314.421.41.592h.117v-1.327h1.561v8.363c0 .703-.163 1.28-.49 1.731a2.887 2.887 0 0 1-1.326 1.002c-.554.216-1.18.325-1.875.325Zm-.016-4.683c.458 0 .845-.106 1.161-.319.32-.217.561-.526.724-.927.167-.405.25-.89.25-1.454 0-.551-.08-1.035-.244-1.454-.164-.419-.403-.746-.72-.98-.315-.238-.706-.357-1.171-.357-.48 0-.88.124-1.199.373-.32.245-.56.578-.724 1.001-.16.423-.24.895-.24 1.417 0 .536.082 1.007.245 1.411.163.405.405.721.725.949.323.227.72.34 1.193.34Zm7.436-9.465V197H38.07v-10.909h1.593Zm5.669 11.074c-.806 0-1.5-.172-2.083-.517a3.506 3.506 0 0 1-1.342-1.464c-.313-.633-.469-1.373-.469-2.222 0-.838.156-1.576.469-2.216a3.635 3.635 0 0 1 1.32-1.496c.569-.359 1.233-.538 1.993-.538.462 0 .909.076 1.342.229.434.152.822.392 1.167.719.344.327.616.751.815 1.273.199.518.298 1.149.298 1.891v.564h-6.504v-1.193h4.943c0-.419-.085-.79-.255-1.113a1.93 1.93 0 0 0-.72-.772c-.305-.189-.663-.283-1.075-.283-.448 0-.839.11-1.172.331-.33.216-.586.5-.767.852a2.458 2.458 0 0 0-.267 1.134v.933c0 .547.096 1.012.288 1.395.195.384.467.677.815.879.348.199.755.298 1.22.298.302 0 .577-.042.825-.127a1.707 1.707 0 0 0 1.06-1.039l1.508.272c-.12.443-.337.832-.65 1.166-.309.33-.698.588-1.166.772-.466.182-.997.272-1.593.272Zm6.327-.064c-.292 0-.542-.103-.752-.309a1.029 1.029 0 0 1-.314-.756c0-.291.105-.54.314-.746.21-.209.46-.314.752-.314.29 0 .541.105.75.314.21.206.315.455.315.746a1.091 1.091 0 0 1-.533.921c-.16.096-.337.144-.532.144Zm6.645.064c-.792 0-1.474-.179-2.046-.538a3.559 3.559 0 0 1-1.31-1.497c-.306-.635-.458-1.363-.458-2.184 0-.831.156-1.564.468-2.2a3.586 3.586 0 0 1 1.322-1.496c.568-.359 1.237-.538 2.008-.538.621 0 1.175.115 1.662.346.486.227.878.547 1.177.959.302.412.481.893.538 1.443h-1.55a1.86 1.86 0 0 0-.586-.991c-.302-.277-.707-.415-1.215-.415-.444 0-.832.117-1.166.352-.33.23-.588.561-.773.99-.184.426-.277.931-.277 1.513 0 .597.091 1.112.272 1.545.181.433.437.769.767 1.007.334.238.726.356 1.177.356.302 0 .576-.055.82-.165.25-.113.457-.275.624-.484.17-.21.29-.462.357-.757h1.55a3.01 3.01 0 0 1-.517 1.417 2.969 2.969 0 0 1-1.156.98c-.48.238-1.042.357-1.688.357Zm8.51 0c-.767 0-1.436-.176-2.008-.527a3.56 3.56 0 0 1-1.331-1.476c-.317-.632-.474-1.37-.474-2.216 0-.848.157-1.591.474-2.226a3.55 3.55 0 0 1 1.331-1.481c.572-.352 1.241-.527 2.008-.527.768 0 1.437.175 2.009.527a3.55 3.55 0 0 1 1.331 1.481c.316.635.474 1.378.474 2.226 0 .846-.158 1.584-.474 2.216a3.561 3.561 0 0 1-1.331 1.476c-.572.351-1.241.527-2.009.527Zm.006-1.337c.497 0 .909-.131 1.236-.394.326-.263.568-.613.724-1.049.16-.437.24-.918.24-1.444 0-.522-.08-1.001-.24-1.438a2.338 2.338 0 0 0-.725-1.06c-.326-.267-.738-.4-1.235-.4-.501 0-.916.133-1.247.4-.326.266-.57.619-.73 1.06a4.244 4.244 0 0 0-.234 1.438c0 .526.078 1.007.235 1.444.16.436.403.786.73 1.049.33.263.745.394 1.246.394ZM72.406 197v-8.182h1.529v1.332h.101c.17-.451.45-.803.836-1.055.388-.256.85-.383 1.39-.383.547 0 1.006.127 1.375.383.373.256.648.607.826 1.055h.085a2.3 2.3 0 0 1 .932-1.044c.426-.263.934-.394 1.523-.394.743 0 1.348.232 1.817.697.472.466.708 1.167.708 2.104V197h-1.592v-5.337c0-.554-.151-.956-.453-1.204a1.645 1.645 0 0 0-1.082-.373c-.518 0-.921.16-1.209.479-.287.316-.431.723-.431 1.22V197h-1.587v-5.439c0-.443-.139-.8-.416-1.07-.277-.27-.637-.405-1.081-.405-.302 0-.58.08-.837.24a1.754 1.754 0 0 0-.612.655c-.153.28-.23.605-.23.975V197h-1.592Zm52.261 69.167h66.666a4.168 4.168 0 0 1 4.167 4.166V287a4.167 4.167 0 0 1-4.167 4.167h-66.666A4.168 4.168 0 0 1 120.5 287v-16.667a4.168 4.168 0 0 1 4.167-4.166Zm0 33.333h66.666a4.17 4.17 0 0 1 2.947 1.22 4.17 4.17 0 0 1 1.22 2.947v16.666a4.17 4.17 0 0 1-1.22 2.947 4.17 4.17 0 0 1-2.947 1.22h-66.666a4.17 4.17 0 0 1-2.947-1.22 4.17 4.17 0 0 1-1.22-2.947v-16.666a4.17 4.17 0 0 1 1.22-2.947 4.17 4.17 0 0 1 2.947-1.22Zm0 33.333h66.666A4.168 4.168 0 0 1 195.5 337v16.667a4.167 4.167 0 0 1-4.167 4.166h-66.666a4.167 4.167 0 0 1-4.167-4.166V337a4.167 4.167 0 0 1 4.167-4.167Zm20.833-50h4.167V274.5H145.5v8.333Zm0 33.334h4.167v-8.334H145.5v8.334Zm0 33.333h4.167v-8.333H145.5v8.333Zm-16.667-75v8.333h8.334V274.5h-8.334Zm0 33.333v8.334h8.334v-8.334h-8.334Zm0 33.334v8.333h8.334v-8.333h-8.334ZM145.888 381h-3.532v-10.909H146c1.069 0 1.987.218 2.754.655a4.322 4.322 0 0 1 1.763 1.87c.412.809.618 1.781.618 2.913 0 1.137-.208 2.113-.624 2.93a4.377 4.377 0 0 1-1.789 1.886c-.782.437-1.726.655-2.834.655Zm-1.886-1.438h1.795c.831 0 1.522-.156 2.072-.469a2.947 2.947 0 0 0 1.236-1.369c.274-.6.41-1.332.41-2.195 0-.855-.136-1.582-.41-2.178a2.892 2.892 0 0 0-1.209-1.358c-.536-.309-1.202-.464-1.998-.464h-1.896v8.033Zm17.984-9.471V381h-1.512l-5.545-8.001h-.102V381h-1.646v-10.909h1.524l5.55 8.011h.101v-8.011h1.63Zm8.351 2.866a1.553 1.553 0 0 0-.703-1.172c-.412-.281-.93-.421-1.555-.421-.448 0-.835.071-1.161.213a1.79 1.79 0 0 0-.762.575 1.357 1.357 0 0 0-.266.826c0 .259.06.483.181.671.124.188.286.346.484.474.203.125.419.229.65.315.231.081.453.149.666.202l1.065.277c.348.085.705.201 1.071.346.366.146.705.337 1.018.575.312.238.564.533.756.885.195.351.293.772.293 1.262 0 .618-.16 1.167-.479 1.646-.317.479-.776.858-1.38 1.135-.6.277-1.326.415-2.179.415-.816 0-1.523-.13-2.12-.389-.596-.259-1.063-.627-1.401-1.102-.337-.48-.523-1.048-.559-1.705h1.651c.032.394.16.723.384.986.227.259.517.452.868.58.355.124.744.187 1.167.187.465 0 .879-.073 1.241-.219.366-.149.653-.355.863-.618.209-.266.314-.577.314-.932 0-.323-.092-.588-.277-.794a2.048 2.048 0 0 0-.74-.511 7.227 7.227 0 0 0-1.05-.357l-1.289-.351c-.873-.238-1.566-.588-2.077-1.05-.508-.461-.762-1.072-.762-1.832 0-.629.17-1.177.511-1.646.341-.469.803-.833 1.385-1.092.583-.263 1.24-.394 1.971-.394.739 0 1.39.129 1.955.389.568.259 1.016.616 1.342 1.07.327.451.498.97.512 1.556h-1.588ZM158 16.667a16.666 16.666 0 1 1 0 33.331 16.666 16.666 0 0 1 0-33.331Zm0 41.666c18.417 0 33.333 7.459 33.333 16.667v8.333h-66.666V75c0-9.208 14.916-16.667 33.333-16.667ZM131.012 93.09h1.651v7.176c0 .763-.179 1.44-.538 2.029a3.757 3.757 0 0 1-1.512 1.385c-.65.334-1.412.501-2.286.501-.87 0-1.63-.167-2.279-.501a3.76 3.76 0 0 1-1.513-1.385c-.359-.589-.538-1.266-.538-2.029v-7.175h1.646v7.042c0 .493.108.932.325 1.316.22.383.531.685.932.905.401.217.877.325 1.427.325.554 0 1.032-.108 1.433-.325.405-.22.714-.522.927-.905.217-.384.325-.823.325-1.316v-7.042Zm7.736 2.728v1.279h-4.469v-1.279h4.469Zm-3.271-1.96h1.593v7.74c0 .309.046.541.138.697a.73.73 0 0 0 .357.315c.149.053.311.08.485.08.128 0 .24-.009.336-.027l.223-.043.288 1.316a3.163 3.163 0 0 1-1.033.171 2.81 2.81 0 0 1-1.172-.224 2.01 2.01 0 0 1-.879-.725c-.224-.326-.336-.736-.336-1.23v-8.07ZM140.51 104v-8.182h1.592V104h-1.592Zm.804-9.444c-.277 0-.515-.093-.714-.277a.902.902 0 0 1-.293-.671.89.89 0 0 1 .293-.672c.199-.188.437-.282.714-.282.277 0 .513.094.708.282a.883.883 0 0 1 .299.672.89.89 0 0 1-.299.67.993.993 0 0 1-.708.278Zm4.524-1.465V104h-1.593V93.09h1.593ZM147.98 104v-8.182h1.593V104h-1.593Zm.805-9.444c-.277 0-.515-.093-.714-.277a.902.902 0 0 1-.293-.671.89.89 0 0 1 .293-.672c.199-.188.437-.282.714-.282.277 0 .513.094.708.282a.882.882 0 0 1 .298.672.889.889 0 0 1-.298.67.993.993 0 0 1-.708.278Zm9.062 3.26-1.444.255a1.708 1.708 0 0 0-.287-.527 1.425 1.425 0 0 0-.522-.41c-.221-.107-.496-.16-.826-.16-.451 0-.828.101-1.129.304-.302.199-.453.456-.453.772 0 .273.101.494.303.66.203.168.53.304.981.41l1.299.299c.753.174 1.314.442 1.684.804.369.363.554.833.554 1.412 0 .49-.143.927-.427 1.31-.28.38-.673.679-1.177.895-.501.217-1.081.325-1.742.325-.916 0-1.663-.195-2.242-.586-.579-.394-.934-.953-1.066-1.678l1.54-.234c.096.401.293.705.591.911.298.202.687.303 1.167.303.522 0 .939-.108 1.251-.325.313-.22.469-.488.469-.804a.836.836 0 0 0-.287-.644c-.189-.174-.478-.306-.869-.395l-1.385-.303c-.763-.174-1.328-.451-1.694-.831-.362-.38-.543-.861-.543-1.444 0-.483.135-.905.405-1.267.27-.363.643-.645 1.119-.847.475-.206 1.021-.31 1.635-.31.884 0 1.58.192 2.088.576.508.38.843.89 1.007 1.529Zm4.292 6.365c-.519 0-.987-.096-1.407-.288a2.367 2.367 0 0 1-.996-.846c-.241-.37-.362-.823-.362-1.359 0-.461.089-.841.266-1.14.178-.298.418-.534.72-.708a3.74 3.74 0 0 1 1.012-.394c.373-.09.753-.157 1.14-.203l1.193-.138c.305-.04.527-.101.666-.187.138-.085.207-.223.207-.415v-.037c0-.466-.131-.826-.394-1.082-.259-.255-.646-.383-1.161-.383-.536 0-.959.119-1.268.357-.305.234-.516.495-.634.783l-1.496-.341c.177-.497.436-.899.777-1.204a3.162 3.162 0 0 1 1.188-.671 4.642 4.642 0 0 1 1.412-.213c.326 0 .673.039 1.038.117.37.074.714.213 1.034.415a2.3 2.3 0 0 1 .793.869c.206.372.309.857.309 1.454V104h-1.555v-1.119h-.064a2.268 2.268 0 0 1-.463.608 2.473 2.473 0 0 1-.794.495c-.323.131-.71.197-1.161.197Zm.346-1.278c.44 0 .817-.087 1.129-.261a1.83 1.83 0 0 0 .719-.682c.167-.284.251-.588.251-.911v-1.055c-.057.057-.167.11-.331.16a5.23 5.23 0 0 1-.548.123c-.206.032-.407.062-.602.09l-.49.064a3.969 3.969 0 0 0-.847.197 1.457 1.457 0 0 0-.607.4c-.15.17-.224.397-.224.682 0 .394.145.692.437.894.291.199.662.299 1.113.299Zm9.632-7.085v1.279h-4.469v-1.279h4.469Zm-3.271-1.96h1.593v7.74c0 .309.046.541.139.697a.723.723 0 0 0 .356.315c.15.053.311.08.485.08.128 0 .24-.009.336-.027l.223-.043.288 1.316a3.163 3.163 0 0 1-1.033.171 2.81 2.81 0 0 1-1.172-.224 2.01 2.01 0 0 1-.879-.725c-.224-.326-.336-.736-.336-1.23v-8.07Zm8.471 10.307c-.806 0-1.5-.172-2.083-.517a3.51 3.51 0 0 1-1.342-1.464c-.312-.633-.469-1.373-.469-2.222 0-.838.157-1.576.469-2.216a3.637 3.637 0 0 1 1.321-1.496c.568-.359 1.232-.538 1.992-.538.462 0 .909.076 1.343.229.433.152.822.392 1.166.719.345.327.616.75.815 1.273.199.518.298 1.149.298 1.89v.565h-6.503v-1.193h4.943c0-.419-.085-.79-.256-1.113a1.93 1.93 0 0 0-.719-.772 2.008 2.008 0 0 0-1.076-.283c-.447 0-.838.11-1.172.33a2.22 2.22 0 0 0-.767.853 2.454 2.454 0 0 0-.266 1.135v.932c0 .547.096 1.012.287 1.395.196.384.467.677.815.879.348.199.755.298 1.22.298.302 0 .577-.042.826-.127a1.712 1.712 0 0 0 1.06-1.039l1.507.272c-.12.443-.337.832-.65 1.166a3.14 3.14 0 0 1-1.166.772c-.465.182-.996.272-1.593.272Zm10.46-3.558v-4.789h1.598V104h-1.566v-1.417h-.085c-.188.437-.49.801-.905 1.092-.412.288-.925.432-1.54.432-.525 0-.991-.116-1.395-.347a2.42 2.42 0 0 1-.948-1.038c-.228-.459-.341-1.025-.341-1.7v-5.204h1.592v5.013c0 .557.155 1.001.464 1.331.309.331.71.496 1.204.496.298 0 .594-.075.889-.224a1.88 1.88 0 0 0 .741-.677c.198-.301.296-.685.292-1.15Zm3.738 3.393v-8.182h1.54v1.3h.085a1.98 1.98 0 0 1 .788-1.039c.38-.255.81-.383 1.29-.383a6.8 6.8 0 0 1 .676.037v1.523a2.863 2.863 0 0 0-.341-.058 3.247 3.247 0 0 0-.49-.037c-.376 0-.712.08-1.007.24a1.778 1.778 0 0 0-.948 1.603V104h-1.593Z"/>
  <path fill="#C1C1C1" d="M273 56.99a1.5 1.5 0 0 0-3 0h3Zm0 108.019V56.991h-3v108.018h3Z"/>
  <path fill="#C1C1C1" d="M222 55.5a1.5 1.5 0 0 0 0 3v-3Zm147.061 2.56a1.502 1.502 0 0 0 0-2.12l-9.546-9.547a1.5 1.5 0 0 0-2.122 2.122L365.879 57l-8.486 8.485a1.501 1.501 0 0 0 2.122 2.122l9.546-9.546ZM222 58.5h146v-3H222v3Zm54.822 257.874.001 1.5 1.498-.002.001-1.497-1.5-.001Zm1.148-99.934a1.5 1.5 0 0 0-2.121-.002l-9.554 9.538a1.5 1.5 0 1 0 2.119 2.123l8.493-8.478 8.478 8.493a1.5 1.5 0 0 0 2.123-2.119l-9.538-9.555Zm-54.148 98.478a1.5 1.5 0 1 0 .002 3l-.002-3Zm54.5 1.457.087-98.874-3-.002-.087 98.873 3 .003Zm-1.501-1.501-52.999.044.002 3 52.999-.044-.002-3ZM40 316h-1.5v1.5H40V316Zm54 1.5a1.5 1.5 0 0 0 0-3v3Zm-54 0h54v-3H40v3Zm1.5-1.5v-86h-3v86h3ZM40 57v-1.5h-1.5V57H40Zm-1.06 104.061a1.502 1.502 0 0 0 2.12 0l9.547-9.546a1.5 1.5 0 0 0-2.122-2.122L40 157.879l-8.485-8.486a1.501 1.501 0 0 0-2.122 2.122l9.546 9.546ZM101 58.5a1.5 1.5 0 0 0 0-3v3ZM38.5 57v103h3V57h-3Zm1.5 1.5h61v-3H40v3Z"/>
  <path fill="#fff" d="M455.167 65.333c.333-2.75.583-5.5.583-8.333s-.25-5.583-.583-8.333h14.083c.667 2.666 1.083 5.458 1.083 8.333s-.416 5.667-1.083 8.333M447.792 88.5c2.5-4.625 4.416-9.625 5.75-14.833h12.291A33.459 33.459 0 0 1 447.792 88.5Zm-1.042-23.167h-19.5c-.417-2.75-.667-5.5-.667-8.333s.25-5.625.667-8.333h19.5c.375 2.708.667 5.5.667 8.333s-.292 5.583-.667 8.333ZM437 90.167c-3.458-5-6.25-10.542-7.958-16.5h15.916c-1.708 5.958-4.5 11.5-7.958 16.5Zm-16.667-49.834h-12.166a33.012 33.012 0 0 1 18-14.833c-2.5 4.625-4.375 9.625-5.834 14.833Zm-12.166 33.334h12.166c1.459 5.208 3.334 10.208 5.834 14.833a33.366 33.366 0 0 1-18-14.833Zm-3.417-8.334c-.667-2.666-1.083-5.458-1.083-8.333s.416-5.667 1.083-8.333h14.083c-.333 2.75-.583 5.5-.583 8.333s.25 5.583.583 8.333M437 23.792c3.458 5 6.25 10.583 7.958 16.541h-15.916c1.708-5.958 4.5-11.541 7.958-16.541Zm28.833 16.541h-12.291a65.248 65.248 0 0 0-5.75-14.833 33.28 33.28 0 0 1 18.041 14.833Zm-28.833-25c-23.042 0-41.667 18.75-41.667 41.667A41.667 41.667 0 1 0 437 15.333Z"/>
</svg>
