<svg xmlns="http://www.w3.org/2000/svg" width="487" height="410" fill="none" viewBox="0 0 487 410">
  <style>
    text {
      fill: #424242;
      font-family: sans-serif;
      text-anchor: middle;
    }
    .note {
      font-style: italic;
    }
  </style>

  <text
    x="38.5"
    y="197"
    id="FQDN">
      example.net
  </text>
  <text
    id="address">
      <tspan x="276" y="197" dy="-1.2em">203.0.113.37</tspan>
      <tspan x="276" y="197" dy="0" class="note">ou</tspan>
      <tspan x="276" y="197" dy="+1.2em">2001:db8:a1b6:36a0:c606:a4a7:fdaf:ee08</tspan>
  </text>
  <path fill="#424242" d="M124.667 266.167h66.666a4.168 4.168 0 0 1 4.167 4.166V287a4.167 4.167 0 0 1-4.167 4.167h-66.666A4.168 4.168 0 0 1 120.5 287v-16.667a4.168 4.168 0 0 1 4.167-4.166Zm0 33.333h66.666a4.17 4.17 0 0 1 2.947 1.22 4.17 4.17 0 0 1 1.22 2.947v16.666a4.17 4.17 0 0 1-1.22 2.947 4.17 4.17 0 0 1-2.947 1.22h-66.666a4.17 4.17 0 0 1-2.947-1.22 4.17 4.17 0 0 1-1.22-2.947v-16.666a4.17 4.17 0 0 1 1.22-2.947 4.17 4.17 0 0 1 2.947-1.22Zm0 33.333h66.666A4.168 4.168 0 0 1 195.5 337v16.667a4.167 4.167 0 0 1-4.167 4.166h-66.666a4.167 4.167 0 0 1-4.167-4.166V337a4.167 4.167 0 0 1 4.167-4.167Zm20.833-50h4.167V274.5H145.5v8.333Zm0 33.334h4.167v-8.334H145.5v8.334Zm0 33.333h4.167v-8.333H145.5v8.333Zm-16.667-75v8.333h8.334V274.5h-8.334Zm0 33.333v8.334h8.334v-8.334h-8.334Zm0 33.334v8.333h8.334v-8.333h-8.334Z"/>
  <text
    x="158"
    y="381"
    id="DNS">
      DNS
  </text>
  <path fill="#5E5E5E" d="M158 16.667a16.666 16.666 0 1 1 0 33.331 16.666 16.666 0 0 1 0-33.331Zm0 41.666c18.417 0 33.333 7.459 33.333 16.667v8.333h-66.666V75c0-9.208 14.916-16.667 33.333-16.667Z"/>
  <text
    x="158"
    y="105"
    id="user">
      Utilisateur
  </text>
  <path fill="#000" d="M273 56.99a1.5 1.5 0 0 0-3 0h3Zm0 108.019V56.991h-3v108.018h3Z"/>
  <path fill="#000" d="M222 55.5a1.5 1.5 0 0 0 0 3v-3Zm147.061 2.56a1.502 1.502 0 0 0 0-2.12l-9.546-9.547a1.5 1.5 0 0 0-2.122 2.122L365.879 57l-8.486 8.485a1.501 1.501 0 0 0 2.122 2.122l9.546-9.546ZM222 58.5h146v-3H222v3Zm54.822 257.874.001 1.5 1.498-.002.001-1.497-1.5-.001Zm1.148-99.934a1.5 1.5 0 0 0-2.121-.002l-9.555 9.538a1.5 1.5 0 1 0 2.12 2.123l8.493-8.478 8.477 8.493a1.501 1.501 0 0 0 2.124-2.119l-9.538-9.555Zm-54.148 98.478a1.5 1.5 0 1 0 .002 3l-.002-3Zm54.5 1.457.086-98.874-3-.002-.086 98.873 3 .003Zm-1.501-1.501-52.999.044.002 3 52.999-.044-.002-3ZM40 316h-1.5v1.5H40V316Zm54 1.5a1.5 1.5 0 0 0 0-3v3Zm-54 0h54v-3H40v3Zm1.5-1.5v-86h-3v86h3ZM40 57v-1.5h-1.5V57H40Zm-1.06 104.061a1.502 1.502 0 0 0 2.12 0l9.547-9.546a1.5 1.5 0 0 0-2.122-2.122L40 157.879l-8.485-8.486a1.501 1.501 0 0 0-2.122 2.122l9.546 9.546ZM101 58.5a1.5 1.5 0 0 0 0-3v3ZM38.5 57v103h3V57h-3Zm1.5 1.5h61v-3H40v3Z"/>
  <path fill="#5E5E5E" d="M455.167 65.333c.333-2.75.583-5.5.583-8.333s-.25-5.583-.583-8.333h14.083c.667 2.666 1.083 5.458 1.083 8.333s-.416 5.667-1.083 8.333M447.792 88.5c2.5-4.625 4.416-9.625 5.75-14.833h12.291A33.455 33.455 0 0 1 447.792 88.5Zm-1.042-23.167h-19.5c-.417-2.75-.667-5.5-.667-8.333s.25-5.625.667-8.333h19.5c.375 2.708.667 5.5.667 8.333s-.292 5.583-.667 8.333ZM437 90.167c-3.458-5-6.25-10.542-7.958-16.5h15.916c-1.708 5.958-4.5 11.5-7.958 16.5Zm-16.667-49.834h-12.166a33.012 33.012 0 0 1 18-14.833c-2.5 4.625-4.375 9.625-5.834 14.833Zm-12.166 33.334h12.166c1.459 5.208 3.334 10.208 5.834 14.833a33.366 33.366 0 0 1-18-14.833Zm-3.417-8.334c-.667-2.666-1.083-5.458-1.083-8.333s.416-5.667 1.083-8.333h14.083c-.333 2.75-.583 5.5-.583 8.333s.25 5.583.583 8.333M437 23.792c3.458 5 6.25 10.583 7.958 16.541h-15.916c1.708-5.958 4.5-11.541 7.958-16.541Zm28.833 16.541h-12.291a65.201 65.201 0 0 0-5.75-14.833 33.28 33.28 0 0 1 18.041 14.833Zm-28.833-25c-23.042 0-41.667 18.75-41.667 41.667A41.667 41.667 0 1 0 437 15.333Z"/>
</svg>
