<svg xmlns="http://www.w3.org/2000/svg" width="25" height="25" fill="none" viewBox="0 0 25 25">
  <g clip-path="url(#a)">
    <path fill="#fff" d="M11.328 3.125V1.562a1.172 1.172 0 0 1 2.344 0v1.563a1.172 1.172 0 0 1-2.344 0Zm7.813 9.375A6.64 6.64 0 1 1 12.5 5.86a6.647 6.647 0 0 1 6.64 6.64Zm-2.344 0a4.297 4.297 0 1 0-8.593 0 4.297 4.297 0 0 0 8.593 0ZM5.03 6.688a1.174 1.174 0 0 0 1.66-1.66L5.52 3.856a1.174 1.174 0 1 0-1.66 1.66l1.17 1.173Zm0 11.622-1.172 1.17a1.175 1.175 0 0 0 1.28 1.915c.142-.059.272-.145.38-.254L6.69 19.97a1.174 1.174 0 1 0-1.66-1.66ZM19.14 7.03a1.172 1.172 0 0 0 .83-.343l1.172-1.171a1.174 1.174 0 1 0-1.66-1.66L18.31 5.027a1.172 1.172 0 0 0 .83 2.003Zm.83 11.28a1.174 1.174 0 0 0-1.66 1.66l1.171 1.173a1.174 1.174 0 0 0 1.66-1.66L19.97 18.31ZM4.297 12.5a1.172 1.172 0 0 0-1.172-1.172H1.562a1.172 1.172 0 0 0 0 2.344h1.563A1.172 1.172 0 0 0 4.297 12.5Zm8.203 8.203a1.172 1.172 0 0 0-1.172 1.172v1.563a1.172 1.172 0 1 0 2.344 0v-1.563a1.172 1.172 0 0 0-1.172-1.172Zm10.938-9.375h-1.563a1.172 1.172 0 1 0 0 2.344h1.563a1.172 1.172 0 1 0 0-2.344Z"/>
  </g>
  <defs>
    <clipPath id="a">
      <path fill="#fff" d="M0 0h25v25H0z"/>
    </clipPath>
  </defs>
</svg>
