<svg xmlns="http://www.w3.org/2000/svg" width="50" height="50" fill="none" viewBox="0 0 50 50">
  <path fill="#fff" d="M46.792 12.5a17.847 17.847 0 0 1-5.125 1.437 8.955 8.955 0 0 0 3.916-4.958c-1.729 1.042-3.645 1.77-5.666 2.188-1.646-1.792-3.959-2.834-6.584-2.834-4.895 0-8.895 4-8.895 8.938 0 .708.083 1.396.229 2.041A25.405 25.405 0 0 1 6.25 9.98a8.842 8.842 0 0 0-1.208 4.48c0 3.103 1.562 5.853 3.979 7.416-1.48 0-2.854-.417-4.063-1.042v.063c0 4.333 3.084 7.958 7.167 8.77a8.79 8.79 0 0 1-4.02.146 8.916 8.916 0 0 0 8.332 6.209 17.752 17.752 0 0 1-11.104 3.833c-.708 0-1.416-.042-2.125-.125a25.3 25.3 0 0 0 13.709 4.02c16.416 0 25.437-13.624 25.437-25.437 0-.395 0-.77-.02-1.166 1.75-1.25 3.25-2.834 4.458-4.646Z"/>
</svg>
